<?xml version="1.0" encoding="UTF-8"?>
<svg id="Layer_1" xmlns="http://www.w3.org/2000/svg" version="1.1" viewBox="0 0 450.2 149.53">
  <!-- Generator: Adobe Illustrator 30.3.0, SVG Export Plug-In . SVG Version: 2.1.1 Build 126)  -->
  <defs>
    <style>
      .st0 {
        fill: #363747;
      }

      .st1 {
        fill: #fff;
      }

      .st2 {
        fill: #f08a11;
      }
    </style>
  </defs>
  <g>
    <circle class="st1" cx="31.77" cy="82.4" r="13.2"/>
    <circle class="st1" cx="111.32" cy="82.4" r="13.2"/>
    <path class="st2" d="M30.88,74.89c-5.54.59-5.64,5.44-5.64,5.44,1.19-.89,3.26-1.88,3.26-1.88l-.89,10.48,3.66-.99c-.59,11.27,7.51,25.11,7.51,25.11.3-.4.69-2.37.69-2.37,6.72,16.02,18.98,25.46,18.98,25.46l1.01-2.1c8.11,7.56,11.89,7.42,11.89,7.42,4.21,0,12.13-7.44,12.13-7.44l.99,2.05c12.75-8.6,19.06-25.77,19.06-25.77.63,2.71.96,2.56.96,2.56,6.82-9.64,7.19-25.01,7.19-25.01l3.76.89c0-7.96-1.11-10.18-1.11-10.18,2.03.47,3.63,1.88,3.63,1.88-.22-4.5-5.64-5.59-5.64-5.59-1.78-7.27-5.07-12.21-5.44-12.69s-.03-.86-.03-.86c0,0,4.76-4.97,5.21-5.42s.58.19.58.19v7.27c2.22,0,16.76,4.3,16.76,19.45s-16.31,18.66-16.31,18.66v44.49h23.88V19.62h-23.83l-41.75,41.75L29.78,19.72H5.75v126.21h24.28v-44.61c2.27.2-16.21-1.68-16.21-18.42s16.26-19.24,16.26-19.24v-7.49c0-.82.59-.26.59-.26,0,0,3.91,4,4.93,4.89.7.61.7.95.63,1.1,0,0-4.12,5.87-5.35,12.98Z"/>
    <path class="st0" d="M71.55,135.69s-6.94.25-10.35-4.2-3.41-5.39-3.41-6.82,1.43-3.66,3.06-4.99c0,0-3.95,2.52-6.53,2.52s-1.88-2.42-1.33-2.77,4.83-4.4,18.55-4.4,18.67,4.8,18.67,4.8c0,0,1.33,2.47-1.63,2.47s-6.38-2.77-6.38-2.77c0,0,2.97,3.21,2.97,5.24s-2.13,6.33-5.34,8.3-4.71,2.62-8.29,2.62Z"/>
    <path class="st0" d="M50.77,116.81s9.72-5.04,20.78-5.04,20.75,5.04,20.75,5.04c0,0,3.46-11.77-6.18-20.42,0,0-1.88,1.53-4,1.53,0,0,3.56-2.52,3.56-5.24s-5.54-7.76-8.11-7.76-3.91,2.92-3.91,2.92l-1.43-3.66h-1.38l-1.29,3.56s-1.78-2.97-4.2-2.97-7.81,5.24-7.81,8.01,3.41,5.09,3.41,5.09c0,0-2.52-.15-4-1.19,0,0-9.1,6.03-6.18,20.12Z"/>
    <path class="st1" d="M67.17,97.6l2.57-1.93s1.06-1.06,0-2.13-5.98-5.34-8.3-.89c0,0-.69,2.87,3.02,2.87,0,0,2.13.3,2.72,2.08Z"/>
    <path class="st1" d="M75.99,97.6l-2.57-1.93s-1.06-1.06,0-2.13,5.98-5.34,8.3-.89c0,0,.69,2.87-3.02,2.87,0,0-2.13.3-2.72,2.08Z"/>
    <path class="st0" d="M45.07,96.57s3.87-2.87,5.12-4.89c0,0-12.04-6.77-12.04-16.02s7.81-12.66,10.83-12.31,7.76.84,18.34,9.15v-1.98s3.77,2.18,4.06,10.68c0,0-.3,1.09-1.16.1s-2.05-2.03-2.2-3.51c0,0-.74,3.26-8.9-.44-8.16-3.71-13.55-6.43-15.47-4.4,0,0,2.87.74,2.92,1.68s-2.42,3.26-1.43,6.82c0,0,1.33-.89,1.88-1.04s.94-.15,1.33.54,2.97,4.99,9.59,5.64c0,0-.1,1.78-4.94,1.63,0,0,1.53,2.52,1.53,4.2s-3.31,4.15-9.44,4.15Z"/>
    <path class="st0" d="M98.07,96.57s-3.87-2.87-5.12-4.89c0,0,12.04-6.77,12.04-16.02s-7.81-12.66-10.83-12.31-7.76.84-18.34,9.15v-1.98s-3.77,2.18-4.06,10.68c0,0,.3,1.09,1.16.1s2.05-2.03,2.2-3.51c0,0,.74,3.26,8.9-.44,8.16-3.71,13.55-6.43,15.47-4.4,0,0-2.87.74-2.92,1.68s2.42,3.26,1.43,6.82c0,0-1.33-.89-1.88-1.04s-.94-.15-1.33.54-2.97,4.99-9.59,5.64c0,0,.1,1.78,4.94,1.63,0,0-1.53,2.52-1.53,4.2s3.31,4.15,9.44,4.15Z"/>
    <path class="st1" d="M52.81,77.29l1.73.87s-.59,3.51,2.25,3.51c0,0,1.21.32,2.45-1.56l1.85.84s-1.29,2.79-4.33,2.79-5.26-2.67-3.95-6.45Z"/>
    <path class="st1" d="M90.35,77.29l-1.73.87s.59,3.51-2.25,3.51c0,0-1.21.32-2.45-1.56l-1.85.84s1.29,2.79,4.33,2.79c3.04,0,5.26-2.67,3.95-6.45Z"/>
  </g>
  <g>
    <path class="st1" d="M209.88,111.93l8.61-47.1h17.95l-15.94,75.11h-18.78l-10.06-42.81-9.85,42.81h-18.72l-15.99-75.11h18l8.61,47.1,10.32-47.1h15.37l10.47,47.1Z"/>
    <path class="st1" d="M238.92,111.52c0-5.57,1.08-10.53,3.25-14.88,2.17-4.35,5.28-7.69,9.34-10.03,4.06-2.34,8.82-3.51,14.29-3.51,8.36,0,14.94,2.59,19.76,7.76,4.81,5.18,7.22,12.22,7.22,21.12v.62c0,8.7-2.42,15.6-7.25,20.71-4.83,5.11-11.37,7.66-19.63,7.66s-14.32-2.38-19.14-7.14c-4.82-4.76-7.41-11.22-7.79-19.37l-.05-2.94ZM256.3,112.6c0,5.16.81,8.94,2.42,11.35,1.62,2.41,4.01,3.61,7.17,3.61,6.19,0,9.35-4.76,9.49-14.29v-1.75c0-10.01-3.2-15.01-9.59-15.01-5.81,0-8.96,4.32-9.44,12.95l-.05,3.15Z"/>
    <path class="st1" d="M334.19,99.86l-5.73-.41c-5.47,0-8.98,1.72-10.52,5.16v35.33h-17.38v-55.81h16.3l.57,7.17c2.92-5.47,7-8.2,12.23-8.2,1.86,0,3.47.21,4.85.62l-.31,16.15Z"/>
    <path class="st1" d="M362.88,119.15l-4.9,4.9v15.89h-17.38V60.65h17.38v42.09l1.75-2.32,13.1-16.3h20.84l-19.55,22.95,20.84,32.86h-19.91l-12.17-20.79Z"/>
    <path class="st1" d="M427.46,124.26c0-1.48-.77-2.66-2.32-3.56-1.55-.89-4.49-1.82-8.82-2.79-4.33-.96-7.91-2.23-10.73-3.79-2.82-1.56-4.97-3.46-6.45-5.7-1.48-2.24-2.22-4.8-2.22-7.69,0-5.12,2.11-9.34,6.34-12.66,4.23-3.32,9.77-4.98,16.61-4.98,7.36,0,13.27,1.67,17.74,5,4.47,3.34,6.71,7.72,6.71,13.15h-17.44c0-4.47-2.36-6.71-7.07-6.71-1.82,0-3.35.51-4.59,1.52-1.24,1.01-1.86,2.28-1.86,3.79s.76,2.8,2.27,3.77c1.51.96,3.93,1.75,7.25,2.37,3.32.62,6.23,1.36,8.74,2.22,8.39,2.89,12.59,8.06,12.59,15.53,0,5.09-2.26,9.23-6.78,12.43-4.52,3.2-10.38,4.8-17.56,4.8-4.78,0-9.04-.86-12.79-2.58-3.75-1.72-6.67-4.06-8.77-7.02-2.1-2.96-3.15-6.07-3.15-9.34h16.25c.07,2.58.93,4.46,2.58,5.65,1.65,1.19,3.77,1.78,6.34,1.78,2.37,0,4.15-.48,5.34-1.44,1.19-.96,1.78-2.22,1.78-3.77Z"/>
  </g>
  <g>
    <path class="st2" d="M143,40.09c0-4.11.8-7.76,2.4-10.97,1.6-3.21,3.89-5.67,6.88-7.4,2.99-1.72,6.5-2.59,10.53-2.59,6.16,0,11.01,1.91,14.56,5.72,3.55,3.82,5.32,9.01,5.32,15.57v.46c0,6.41-1.78,11.5-5.34,15.27-3.56,3.76-8.39,5.65-14.47,5.65s-10.56-1.76-14.11-5.27c-3.55-3.51-5.46-8.27-5.74-14.28l-.04-2.17ZM155.82,40.89c0,3.8.6,6.59,1.79,8.37,1.19,1.77,2.95,2.66,5.29,2.66,4.56,0,6.9-3.51,7-10.53v-1.29c0-7.38-2.36-11.07-7.07-11.07-4.28,0-6.6,3.18-6.96,9.54l-.04,2.32Z"/>
    <path class="st2" d="M200.12,19.9l.42,4.83c2.84-3.73,6.76-5.59,11.75-5.59,4.28,0,7.48,1.28,9.6,3.84,2.12,2.56,3.21,6.41,3.29,11.56v26.51h-12.85v-25.97c0-2.08-.42-3.61-1.25-4.58-.84-.98-2.36-1.46-4.56-1.46-2.51,0-4.37.99-5.59,2.97v29.05h-12.82V19.9h12.02Z"/>
    <path class="st2" d="M248.79,45.72l-3.61,3.61v11.71h-12.82V2.6h12.82v31.03l1.29-1.71,9.66-12.02h15.36l-14.41,16.92,15.36,24.22h-14.68l-8.97-15.32Z"/>
    <path class="st2" d="M294.77,61.81c-6.31,0-11.42-1.88-15.32-5.65-3.9-3.76-5.86-8.66-5.86-14.7v-1.06c0-4.21.78-7.92,2.34-11.14,1.56-3.22,3.83-5.71,6.83-7.47,2.99-1.76,6.54-2.64,10.65-2.64,5.78,0,10.34,1.79,13.69,5.38,3.35,3.59,5.02,8.59,5.02,15v4.98h-25.48c.46,2.31,1.46,4.12,3,5.44,1.55,1.32,3.55,1.98,6.01,1.98,4.06,0,7.23-1.42,9.51-4.26l5.86,6.92c-1.6,2.21-3.86,3.96-6.79,5.27-2.93,1.31-6.08,1.96-9.45,1.96ZM293.32,29.03c-3.75,0-5.98,2.49-6.69,7.45h12.93v-.99c.05-2.05-.47-3.64-1.56-4.77-1.09-1.13-2.65-1.69-4.68-1.69Z"/>
    <path class="st2" d="M333.71,43.1l6.84-23.2h13.73l-16.77,48.03-.72,1.75c-2.38,5.32-6.59,7.99-12.63,7.99-1.67,0-3.44-.25-5.29-.76v-9.13h1.67c1.8,0,3.18-.26,4.13-.78.95-.52,1.65-1.45,2.11-2.8l1.03-2.74-14.3-41.56h13.69l6.5,23.2Z"/>
    <path class="st2" d="M379.15,49.49c0-1.09-.57-1.96-1.71-2.62-1.14-.66-3.31-1.34-6.5-2.05-3.19-.71-5.83-1.64-7.91-2.79-2.08-1.15-3.66-2.55-4.75-4.2-1.09-1.65-1.64-3.54-1.64-5.67,0-3.78,1.56-6.89,4.68-9.34,3.12-2.45,7.2-3.67,12.24-3.67,5.42,0,9.79,1.23,13.08,3.69,3.3,2.46,4.94,5.69,4.94,9.7h-12.85c0-3.3-1.74-4.94-5.21-4.94-1.34,0-2.47.37-3.38,1.12-.91.75-1.37,1.68-1.37,2.79s.56,2.07,1.67,2.78c1.12.71,2.9,1.29,5.34,1.75,2.45.46,4.59,1,6.45,1.64,6.19,2.13,9.28,5.95,9.28,11.45,0,3.75-1.67,6.81-5,9.16-3.33,2.36-7.65,3.54-12.95,3.54-3.52,0-6.67-.63-9.43-1.9-2.76-1.27-4.92-2.99-6.46-5.17-1.55-2.18-2.32-4.47-2.32-6.88h11.98c.05,1.9.68,3.29,1.9,4.16,1.22.87,2.78,1.31,4.68,1.31,1.75,0,3.06-.35,3.94-1.06.87-.71,1.31-1.64,1.31-2.78Z"/>
  </g>
</svg>