<?xml version="1.0" encoding="UTF-8"?>
<svg id="Layer_1" xmlns="http://www.w3.org/2000/svg" version="1.1" viewBox="0 0 400 400">
  <!-- Generator: Adobe Illustrator 30.3.0, SVG Export Plug-In . SVG Version: 2.1.1 Build 126)  -->
  <defs>
    <style>
      .st0 {
        fill: #363747;
      }

      .st1 {
        fill: #fff;
      }

      .st2 {
        fill: #f08a11;
      }
    </style>
  </defs>
  <circle class="st2" cx="79.97" cy="198.84" r="39.89"/>
  <circle class="st2" cx="320.36" cy="198.84" r="39.89"/>
  <path class="st0" d="M77.3,176.14c-16.73,1.79-17.03,16.43-17.03,16.43,3.58-2.69,9.86-5.68,9.86-5.68l-2.69,31.67,11.05-2.99c-1.79,34.06,22.7,75.88,22.7,75.88.9-1.19,2.09-7.17,2.09-7.17,20.31,48.4,57.36,76.93,57.36,76.93l3.06-6.35c24.5,22.85,35.93,22.41,35.93,22.41,12.71,0,36.66-22.48,36.66-22.48l2.99,6.2c38.54-25.99,57.58-77.86,57.58-77.86,1.9,8.18,2.91,7.73,2.91,7.73,20.61-29.13,21.73-75.58,21.73-75.58l11.35,2.69c0-24.05-3.36-30.77-3.36-30.77,6.12,1.42,10.98,5.68,10.98,5.68-.67-13.59-17.03-16.88-17.03-16.88-5.38-21.96-15.32-36.88-16.44-38.34s-.08-2.6-.08-2.6c0,0,14.38-15.03,15.74-16.38s1.76.56,1.76.56v21.96c6.72,0,50.64,13,50.64,58.78s-49.29,56.39-49.29,56.39v134.43h72.15V9.14h-72l-126.14,126.14L73.95,9.44H1.36v381.34h73.37v-134.8c6.87.6-48.99-5.08-48.99-55.66s49.14-58.13,49.14-58.13v-22.63c0-2.46,1.79-.78,1.79-.78,0,0,11.82,12.1,14.9,14.79,2.12,1.85,2.12,2.88,1.91,3.34,0,0-12.44,17.72-16.18,39.23Z"/>
  <path class="st1" d="M200.17,359.85s-20.96.75-31.27-12.7c-10.31-13.44-10.31-16.28-10.31-20.61s4.33-11.05,9.26-15.09c0,0-11.95,7.62-19.72,7.62s-5.68-7.32-4.03-8.36,14.58-13.29,56.06-13.29,56.41,14.49,56.41,14.49c0,0,4.03,7.47-4.93,7.47s-19.27-8.36-19.27-8.36c0,0,8.96,9.71,8.96,15.83s-6.42,19.12-16.13,25.09c-9.71,5.97-14.25,7.92-25.05,7.92Z"/>
  <path class="st1" d="M137.38,302.79s29.37-15.24,62.78-15.24,62.69,15.24,62.69,15.24c0,0,10.46-35.55-18.67-61.69,0,0-5.68,4.63-12.1,4.63,0,0,10.75-7.62,10.75-15.83s-16.73-23.45-24.5-23.45-11.8,8.81-11.8,8.81l-4.33-11.05h-4.18l-3.88,10.75s-5.38-8.96-12.7-8.96-23.6,15.83-23.6,24.2,10.31,15.39,10.31,15.39c0,0-7.62-.45-12.1-3.58,0,0-27.48,18.22-18.67,60.79Z"/>
  <path class="st0" d="M186.93,244.77l7.77-5.83s3.21-3.21,0-6.42-18.07-16.13-25.09-2.69c0,0-2.09,8.66,9.11,8.66,0,0,6.42.9,8.22,6.27Z"/>
  <path class="st0" d="M213.6,244.77l-7.77-5.83s-3.21-3.21,0-6.42,18.07-16.13,25.09-2.69c0,0,2.09,8.66-9.11,8.66,0,0-6.42.9-8.22,6.27Z"/>
  <path class="st2" d="M120.16,241.64s11.69-8.66,15.48-14.79c0,0-36.39-20.46-36.39-48.4s23.6-38.24,32.71-37.19,23.45,2.54,55.42,27.63v-5.97s11.38,6.57,12.26,32.26c0,0-.9,3.29-3.52.3s-6.21-6.12-6.66-10.61c0,0-2.24,9.86-26.89-1.34s-40.93-19.42-46.75-13.29c0,0,8.66,2.24,8.81,5.08s-7.32,9.86-4.33,20.61c0,0,4.03-2.69,5.68-3.14s2.84-.45,4.03,1.64,8.96,15.09,28.98,17.03c0,0-.3,5.38-14.94,4.93,0,0,4.63,7.62,4.63,12.7s-10.01,12.55-28.53,12.55Z"/>
  <path class="st2" d="M280.3,241.64s-11.69-8.66-15.48-14.79c0,0,36.39-20.46,36.39-48.4,0-27.93-23.6-38.24-32.71-37.19s-23.45,2.54-55.42,27.63v-5.97s-11.38,6.57-12.26,32.26c0,0,.9,3.29,3.52.3s6.21-6.12,6.66-10.61c0,0,2.24,9.86,26.89-1.34s40.93-19.42,46.75-13.29c0,0-8.66,2.24-8.81,5.08s7.32,9.86,4.33,20.61c0,0-4.03-2.69-5.68-3.14s-2.84-.45-4.03,1.64-8.96,15.09-28.98,17.03c0,0,.3,5.38,14.94,4.93,0,0-4.63,7.62-4.63,12.7s10.01,12.55,28.53,12.55Z"/>
  <path class="st1" d="M143.54,183.38l5.23,2.61s-1.79,10.61,6.8,10.61c0,0,3.66.97,7.39-4.71l5.6,2.54s-3.88,8.44-13.07,8.44-15.91-8.07-11.95-19.49Z"/>
  <path class="st1" d="M256.98,183.38l-5.23,2.61s1.79,10.61-6.8,10.61c0,0-3.66.97-7.39-4.71l-5.6,2.54s3.88,8.44,13.07,8.44c9.19,0,15.91-8.07,11.95-19.49Z"/>
</svg>