<?xml version="1.0" encoding="UTF-8"?>
<svg id="Layer_1" xmlns="http://www.w3.org/2000/svg" version="1.1" viewBox="0 0 400 149.53">
  <!-- Generator: Adobe Illustrator 30.3.0, SVG Export Plug-In . SVG Version: 2.1.1 Build 126)  -->
  <defs>
    <style>
      .st0 {
        fill: #363747;
      }

      .st1 {
        fill: #fff;
      }

      .st2 {
        fill: #f08a11;
      }
    </style>
  </defs>
  <g>
    <circle class="st2" cx="31.83" cy="82.73" r="13.23"/>
    <circle class="st2" cx="111.58" cy="82.73" r="13.23"/>
    <path class="st0" d="M30.94,75.2c-5.55.59-5.65,5.45-5.65,5.45,1.19-.89,3.27-1.88,3.27-1.88l-.89,10.51,3.67-.99c-.59,11.3,7.53,25.17,7.53,25.17.3-.4.69-2.38.69-2.38,6.74,16.06,19.03,25.52,19.03,25.52l1.02-2.11c8.13,7.58,11.92,7.43,11.92,7.43,4.22,0,12.16-7.46,12.16-7.46l.99,2.06c12.78-8.62,19.1-25.83,19.1-25.83.63,2.71.97,2.56.97,2.56,6.84-9.66,7.21-25.07,7.21-25.07l3.77.89c0-7.98-1.11-10.21-1.11-10.21,2.03.47,3.64,1.88,3.64,1.88-.22-4.51-5.65-5.6-5.65-5.6-1.78-7.28-5.08-12.24-5.45-12.72s-.03-.86-.03-.86c0,0,4.77-4.98,5.22-5.44s.59.19.59.19v7.28c2.23,0,16.8,4.31,16.8,19.5s-16.35,18.71-16.35,18.71v44.6h23.93V19.79h-23.88l-41.85,41.85L29.83,19.89H5.75v126.51h24.34v-44.72c2.28.2-16.25-1.68-16.25-18.46s16.3-19.28,16.3-19.28v-7.51c0-.82.59-.26.59-.26,0,0,3.92,4.01,4.94,4.91.7.61.7.95.63,1.11,0,0-4.13,5.88-5.37,13.02Z"/>
    <path class="st1" d="M71.71,136.14s-6.95.25-10.37-4.21-3.42-5.4-3.42-6.84,1.44-3.67,3.07-5c0,0-3.96,2.53-6.54,2.53s-1.88-2.43-1.34-2.77,4.84-4.41,18.6-4.41,18.72,4.81,18.72,4.81c0,0,1.34,2.48-1.64,2.48s-6.39-2.77-6.39-2.77c0,0,2.97,3.22,2.97,5.25s-2.13,6.34-5.35,8.32-4.73,2.63-8.31,2.63Z"/>
    <path class="st1" d="M50.88,117.21s9.74-5.05,20.83-5.05,20.8,5.05,20.8,5.05c0,0,3.47-11.79-6.19-20.47,0,0-1.88,1.54-4.01,1.54,0,0,3.57-2.53,3.57-5.25s-5.55-7.78-8.13-7.78-3.91,2.92-3.91,2.92l-1.44-3.67h-1.39l-1.29,3.57s-1.78-2.97-4.21-2.97-7.83,5.25-7.83,8.03,3.42,5.1,3.42,5.1c0,0-2.53-.15-4.01-1.19,0,0-9.12,6.05-6.19,20.17Z"/>
    <path class="st0" d="M67.31,97.97l2.58-1.93s1.07-1.07,0-2.13-6-5.35-8.32-.89c0,0-.69,2.87,3.02,2.87,0,0,2.13.3,2.73,2.08Z"/>
    <path class="st0" d="M76.16,97.97l-2.58-1.93s-1.07-1.07,0-2.13,6-5.35,8.32-.89c0,0,.69,2.87-3.02,2.87,0,0-2.13.3-2.73,2.08Z"/>
    <path class="st2" d="M45.16,96.93s3.88-2.87,5.14-4.91c0,0-12.07-6.79-12.07-16.06s7.83-12.69,10.85-12.34,7.78.84,18.38,9.17v-1.98s3.78,2.18,4.07,10.7c0,0-.3,1.09-1.17.1s-2.06-2.03-2.21-3.52c0,0-.74,3.27-8.92-.45-8.18-3.72-13.58-6.44-15.51-4.41,0,0,2.87.74,2.92,1.68s-2.43,3.27-1.44,6.84c0,0,1.34-.89,1.88-1.04s.94-.15,1.34.55,2.97,5,9.61,5.65c0,0-.1,1.78-4.96,1.64,0,0,1.54,2.53,1.54,4.21s-3.32,4.16-9.46,4.16Z"/>
    <path class="st2" d="M98.29,96.93s-3.88-2.87-5.14-4.91c0,0,12.07-6.79,12.07-16.06s-7.83-12.69-10.85-12.34-7.78.84-18.38,9.17v-1.98s-3.78,2.18-4.07,10.7c0,0,.3,1.09,1.17.1s2.06-2.03,2.21-3.52c0,0,.74,3.27,8.92-.45s13.58-6.44,15.51-4.41c0,0-2.87.74-2.92,1.68s2.43,3.27,1.44,6.84c0,0-1.34-.89-1.88-1.04s-.94-.15-1.34.55-2.97,5-9.61,5.65c0,0,.1,1.78,4.96,1.64,0,0-1.54,2.53-1.54,4.21s3.32,4.16,9.46,4.16Z"/>
    <path class="st1" d="M52.92,77.6l1.73.87s-.59,3.52,2.25,3.52c0,0,1.21.32,2.45-1.56l1.86.84s-1.29,2.8-4.34,2.8-5.28-2.68-3.96-6.47Z"/>
    <path class="st1" d="M90.55,77.6l-1.73.87s.59,3.52-2.25,3.52c0,0-1.21.32-2.45-1.56l-1.86.84s1.29,2.8,4.34,2.8c3.05,0,5.28-2.68,3.96-6.47Z"/>
  </g>
  <g>
    <path class="st2" d="M165.49,65.12l12.67,68.98-3.26,6.31h-11.43l-15.98-75.29h17.99ZM169.47,133.58l15-68.46h8.95l4.86,5.84-15.98,69.44h-9.88l-2.95-6.83ZM199.87,65.12l15.36,68.87-3.1,6.41h-9.88l-16.34-69.55,5.07-5.74h8.89ZM206.49,133.73l12.57-68.62h17.94l-15.98,75.29h-11.38l-3.15-6.67Z"/>
    <path class="st2" d="M239.53,113v-1.09c0-4.1.59-7.88,1.76-11.35,1.17-3.46,2.9-6.47,5.17-9.02,2.28-2.55,5.08-4.54,8.43-5.97,3.34-1.43,7.2-2.15,11.58-2.15s8.3.72,11.66,2.15c3.36,1.43,6.18,3.42,8.45,5.97,2.27,2.55,4,5.56,5.17,9.02,1.17,3.46,1.76,7.25,1.76,11.35v1.09c0,4.07-.59,7.83-1.76,11.3-1.17,3.46-2.9,6.48-5.17,9.05-2.28,2.57-5.09,4.56-8.43,5.97-3.34,1.41-7.21,2.12-11.58,2.12s-8.26-.71-11.63-2.12c-3.38-1.41-6.21-3.4-8.48-5.97-2.27-2.57-4-5.58-5.17-9.05-1.17-3.46-1.76-7.23-1.76-11.3ZM256.96,111.91v1.09c0,2.1.16,4.07.47,5.89.31,1.83.83,3.42,1.55,4.78.72,1.36,1.71,2.42,2.95,3.18,1.24.76,2.79,1.14,4.65,1.14s3.35-.38,4.58-1.14c1.22-.76,2.2-1.82,2.92-3.18.72-1.36,1.24-2.96,1.55-4.78.31-1.83.47-3.79.47-5.89v-1.09c0-2.03-.16-3.96-.47-5.77-.31-1.81-.83-3.41-1.55-4.81-.72-1.4-1.71-2.49-2.95-3.28s-2.79-1.19-4.65-1.19-3.35.4-4.58,1.19c-1.22.79-2.2,1.89-2.92,3.28-.72,1.4-1.24,3-1.55,4.81-.31,1.81-.47,3.73-.47,5.77Z"/>
    <path class="st2" d="M318.8,98.31v42.09h-17.43v-55.95h16.29l1.14,13.86ZM335.35,84.04l-.31,16.18c-.69-.07-1.62-.16-2.79-.26s-2.15-.16-2.95-.16c-2.03,0-3.78.23-5.25.7-1.47.47-2.67,1.16-3.62,2.07-.95.91-1.64,2.06-2.07,3.44-.43,1.38-.63,2.98-.59,4.81l-3.15-2.07c0-3.76.37-7.18,1.11-10.26.74-3.08,1.8-5.76,3.18-8.01,1.38-2.26,3.05-4,5.02-5.22,1.96-1.22,4.17-1.84,6.62-1.84.86,0,1.71.05,2.56.16s1.59.26,2.25.47Z"/>
    <path class="st2" d="M358.93,60.93v79.47h-17.43V60.93h17.43ZM394.71,84.45l-24.3,28.49-12.72,12.72-7.6-11.07,10.6-13.81,13.13-16.34h20.89ZM376.04,140.4l-14.94-25.49,12.88-9.15,22.03,34.64h-19.96Z"/>
  </g>
  <g>
    <path class="st0" d="M143.37,41.12v-.8c0-3.02.43-5.81,1.3-8.37.86-2.55,2.13-4.77,3.81-6.65,1.68-1.88,3.75-3.35,6.21-4.4,2.46-1.05,5.31-1.58,8.54-1.58s6.12.53,8.6,1.58c2.48,1.05,4.56,2.52,6.23,4.4,1.68,1.88,2.95,4.1,3.81,6.65.86,2.55,1.3,5.34,1.3,8.37v.8c0,3-.43,5.78-1.3,8.33-.86,2.55-2.13,4.78-3.81,6.67-1.68,1.89-3.75,3.36-6.21,4.4-2.47,1.04-5.31,1.56-8.54,1.56s-6.09-.52-8.58-1.56c-2.49-1.04-4.57-2.51-6.25-4.4-1.68-1.89-2.95-4.12-3.81-6.67-.86-2.55-1.3-5.33-1.3-8.33ZM156.21,40.32v.8c0,1.55.11,3,.34,4.35.23,1.35.61,2.52,1.14,3.53.53,1,1.26,1.79,2.17,2.34.91.56,2.06.84,3.43.84s2.47-.28,3.37-.84c.9-.56,1.62-1.34,2.15-2.34.53-1,.92-2.18,1.14-3.53.23-1.35.34-2.79.34-4.35v-.8c0-1.5-.11-2.92-.34-4.25-.23-1.33-.61-2.52-1.14-3.55s-1.26-1.84-2.17-2.42c-.92-.58-2.06-.88-3.43-.88s-2.47.29-3.37.88c-.9.58-1.62,1.39-2.15,2.42s-.92,2.21-1.14,3.55c-.23,1.33-.34,2.75-.34,4.25Z"/>
    <path class="st0" d="M201.46,28.88v32.44h-12.85V20.08h12.05l.8,8.81ZM199.94,39.29l-3.01.08c0-3.15.38-5.97,1.14-8.44.76-2.48,1.84-4.58,3.24-6.31,1.4-1.73,3.07-3.04,5.01-3.95,1.94-.9,4.11-1.35,6.5-1.35,1.91,0,3.65.28,5.24.84s2.96,1.46,4.12,2.71c1.16,1.25,2.04,2.89,2.67,4.94.62,2.05.93,4.57.93,7.57v25.96h-12.92v-26c0-1.65-.23-2.92-.69-3.79-.46-.88-1.12-1.48-1.98-1.81-.87-.33-1.92-.5-3.16-.5-1.32,0-2.44.25-3.36.76-.91.51-1.64,1.21-2.19,2.12-.55.9-.94,1.96-1.18,3.18s-.36,2.55-.36,4Z"/>
    <path class="st0" d="M245.87,2.73v58.59h-12.85V2.73h12.85ZM272.25,20.08l-17.92,21-9.38,9.38-5.6-8.16,7.81-10.18,9.68-12.05h15.4ZM258.49,61.32l-11.02-18.79,9.49-6.75,16.24,25.54h-14.71Z"/>
    <path class="st0" d="M294.81,62.08c-3.35,0-6.35-.53-9-1.58-2.64-1.05-4.87-2.51-6.69-4.36-1.82-1.85-3.2-3.99-4.15-6.4-.95-2.41-1.43-4.97-1.43-7.66v-1.45c0-3.02.42-5.83,1.26-8.41.84-2.58,2.08-4.83,3.74-6.77,1.65-1.93,3.72-3.44,6.21-4.52,2.49-1.08,5.39-1.62,8.69-1.62,2.92,0,5.54.47,7.85,1.41,2.31.94,4.28,2.29,5.89,4.04,1.61,1.75,2.85,3.88,3.7,6.37.85,2.49,1.28,5.29,1.28,8.39v5.22h-33.7v-8.04h21.16v-.99c.03-1.37-.21-2.54-.71-3.51-.5-.97-1.21-1.7-2.15-2.21-.94-.51-2.08-.76-3.43-.76s-2.55.3-3.45.91c-.9.61-1.6,1.44-2.1,2.5-.5,1.05-.84,2.27-1.05,3.64-.2,1.37-.31,2.82-.31,4.35v1.45c0,1.52.21,2.91.63,4.15.42,1.25,1.03,2.31,1.83,3.18s1.77,1.56,2.9,2.04c1.13.48,2.42.72,3.87.72,1.75,0,3.48-.33,5.18-.99,1.7-.66,3.16-1.75,4.38-3.28l5.83,6.94c-.84,1.19-2.03,2.35-3.56,3.47-1.54,1.12-3.37,2.03-5.51,2.73-2.13.7-4.52,1.05-7.17,1.05Z"/>
    <path class="st0" d="M326.83,20.08l8.12,28.86,1.41,13.61h-8.61l-14.68-42.46h13.76ZM329.54,56.48l10.67-36.4h13.8l-16.58,47.38c-.36,1.04-.83,2.17-1.41,3.37-.58,1.21-1.39,2.36-2.4,3.45-1.02,1.09-2.32,1.98-3.91,2.67-1.59.69-3.55,1.03-5.89,1.03-1.25,0-2.15-.06-2.73-.17-.57-.11-1.44-.31-2.61-.59v-9.19h1.68c1.37,0,2.47-.14,3.3-.42.83-.28,1.46-.69,1.91-1.22s.79-1.18,1.05-1.94l3.12-7.97Z"/>
    <path class="st0" d="M378.94,49.73c0-.71-.24-1.33-.71-1.85-.47-.52-1.29-1-2.46-1.45-1.17-.44-2.81-.9-4.92-1.35-2.01-.43-3.89-1-5.66-1.72-1.77-.71-3.31-1.58-4.63-2.59-1.32-1.02-2.36-2.22-3.11-3.62-.75-1.4-1.12-3-1.12-4.8s.38-3.41,1.12-4.97c.75-1.56,1.85-2.95,3.32-4.15,1.46-1.21,3.25-2.16,5.36-2.86,2.11-.7,4.51-1.05,7.2-1.05,3.71,0,6.91.57,9.61,1.7,2.69,1.13,4.77,2.71,6.23,4.73,1.46,2.02,2.19,4.35,2.19,7h-12.85c0-1.04-.17-1.93-.51-2.67-.34-.74-.9-1.3-1.66-1.7-.76-.39-1.78-.59-3.05-.59-.89,0-1.7.17-2.42.5-.72.33-1.3.79-1.73,1.37-.43.58-.65,1.27-.65,2.06,0,.56.13,1.06.4,1.51.27.44.68.85,1.24,1.22.56.37,1.27.7,2.13.99.86.29,1.91.55,3.13.78,2.77.51,5.36,1.23,7.78,2.17,2.41.94,4.38,2.27,5.89,4,1.51,1.73,2.27,4.05,2.27,6.98,0,1.83-.42,3.51-1.26,5.05-.84,1.54-2.05,2.88-3.62,4.04-1.58,1.16-3.47,2.05-5.68,2.69-2.21.63-4.7.95-7.47.95-3.94,0-7.27-.71-9.99-2.12-2.72-1.41-4.77-3.19-6.16-5.34-1.39-2.15-2.08-4.33-2.08-6.54h11.97c.05,1.27.36,2.31.93,3.13.57.81,1.34,1.41,2.31,1.79.96.38,2.08.57,3.35.57,1.17,0,2.14-.17,2.92-.5.77-.33,1.37-.78,1.77-1.35.41-.57.61-1.24.61-2Z"/>
  </g>
</svg>