<?xml version="1.0" encoding="UTF-8"?>
<svg id="Layer_1" xmlns="http://www.w3.org/2000/svg" version="1.1" viewBox="0 0 450.34 149.53">
  <!-- Generator: Adobe Illustrator 30.3.0, SVG Export Plug-In . SVG Version: 2.1.1 Build 126)  -->
  <defs>
    <style>
      .st0 {
        fill: #363747;
      }

      .st1 {
        fill: #fff;
      }

      .st2 {
        fill: #f08a11;
      }
    </style>
  </defs>
  <g>
    <circle class="st2" cx="31.82" cy="82.09" r="13.23"/>
    <circle class="st2" cx="111.55" cy="82.09" r="13.23"/>
    <path class="st0" d="M30.94,74.56c-5.55.59-5.65,5.45-5.65,5.45,1.19-.89,3.27-1.88,3.27-1.88l-.89,10.5,3.67-.99c-.59,11.29,7.53,25.17,7.53,25.17.3-.4.69-2.38.69-2.38,6.74,16.05,19.02,25.51,19.02,25.51l1.02-2.11c8.12,7.58,11.92,7.43,11.92,7.43,4.21,0,12.16-7.46,12.16-7.46l.99,2.06c12.78-8.62,19.1-25.82,19.1-25.82.63,2.71.97,2.56.97,2.56,6.84-9.66,7.21-25.07,7.21-25.07l3.76.89c0-7.98-1.11-10.2-1.11-10.2,2.03.47,3.64,1.88,3.64,1.88-.22-4.51-5.65-5.6-5.65-5.6-1.78-7.28-5.08-12.23-5.45-12.72s-.03-.86-.03-.86c0,0,4.77-4.98,5.22-5.43s.59.19.59.19v7.28c2.23,0,16.79,4.31,16.79,19.49s-16.35,18.7-16.35,18.7v44.58h23.93V19.18h-23.88l-41.83,41.83L29.83,19.28H5.75v126.47h24.33v-44.7c2.28.2-16.25-1.68-16.25-18.46s16.3-19.28,16.3-19.28v-7.5c0-.82.59-.26.59-.26,0,0,3.92,4.01,4.94,4.9.7.61.7.95.63,1.11,0,0-4.13,5.88-5.36,13.01Z"/>
    <path class="st1" d="M71.69,135.49s-6.95.25-10.37-4.21-3.42-5.4-3.42-6.84,1.44-3.67,3.07-5c0,0-3.96,2.53-6.54,2.53s-1.88-2.43-1.34-2.77,4.84-4.41,18.59-4.41,18.71,4.81,18.71,4.81c0,0,1.34,2.48-1.63,2.48s-6.39-2.77-6.39-2.77c0,0,2.97,3.22,2.97,5.25s-2.13,6.34-5.35,8.32c-3.22,1.98-4.72,2.63-8.31,2.63Z"/>
    <path class="st1" d="M50.86,116.56s9.74-5.05,20.82-5.05,20.79,5.05,20.79,5.05c0,0,3.47-11.79-6.19-20.46,0,0-1.88,1.54-4.01,1.54,0,0,3.57-2.53,3.57-5.25s-5.55-7.78-8.12-7.78-3.91,2.92-3.91,2.92l-1.44-3.67h-1.39l-1.29,3.57s-1.78-2.97-4.21-2.97-7.83,5.25-7.83,8.03,3.42,5.1,3.42,5.1c0,0-2.53-.15-4.01-1.19,0,0-9.11,6.04-6.19,20.16Z"/>
    <path class="st0" d="M67.3,97.32l2.58-1.93s1.07-1.07,0-2.13-5.99-5.35-8.32-.89c0,0-.69,2.87,3.02,2.87,0,0,2.13.3,2.72,2.08Z"/>
    <path class="st0" d="M76.14,97.32l-2.58-1.93s-1.07-1.07,0-2.13,5.99-5.35,8.32-.89c0,0,.69,2.87-3.02,2.87,0,0-2.13.3-2.72,2.08Z"/>
    <path class="st2" d="M45.15,96.28s3.88-2.87,5.13-4.9c0,0-12.07-6.79-12.07-16.05s7.83-12.68,10.85-12.33,7.78.84,18.38,9.16v-1.98s3.78,2.18,4.07,10.7c0,0-.3,1.09-1.17.1s-2.06-2.03-2.21-3.52c0,0-.74,3.27-8.92-.45-8.17-3.72-13.57-6.44-15.51-4.41,0,0,2.87.74,2.92,1.68s-2.43,3.27-1.44,6.84c0,0,1.34-.89,1.88-1.04s.94-.15,1.34.54,2.97,5,9.61,5.65c0,0-.1,1.78-4.95,1.63,0,0,1.54,2.53,1.54,4.21s-3.32,4.16-9.46,4.16Z"/>
    <path class="st2" d="M98.26,96.28s-3.88-2.87-5.13-4.9c0,0,12.07-6.79,12.07-16.05s-7.83-12.68-10.85-12.33-7.78.84-18.38,9.16v-1.98s-3.78,2.18-4.07,10.7c0,0,.3,1.09,1.17.1s2.06-2.03,2.21-3.52c0,0,.74,3.27,8.92-.45,8.17-3.72,13.57-6.44,15.51-4.41,0,0-2.87.74-2.92,1.68s2.43,3.27,1.44,6.84c0,0-1.34-.89-1.88-1.04s-.94-.15-1.34.54-2.97,5-9.61,5.65c0,0,.1,1.78,4.95,1.63,0,0-1.54,2.53-1.54,4.21s3.32,4.16,9.46,4.16Z"/>
    <path class="st1" d="M52.9,76.96l1.73.87s-.59,3.52,2.25,3.52c0,0,1.21.32,2.45-1.56l1.86.84s-1.29,2.8-4.33,2.8-5.28-2.68-3.96-6.46Z"/>
    <path class="st1" d="M90.53,76.96l-1.73.87s.59,3.52-2.25,3.52c0,0-1.21.32-2.45-1.56l-1.86.84s1.29,2.8,4.33,2.8,5.28-2.68,3.96-6.46Z"/>
  </g>
  <g>
    <path class="st2" d="M210.3,111.68l8.63-47.19h17.99l-15.97,75.26h-18.82l-10.08-42.9-9.87,42.9h-18.76l-16.02-75.26h18.04l8.63,47.19,10.34-47.19h15.4l10.49,47.19Z"/>
    <path class="st2" d="M239.41,111.26c0-5.58,1.09-10.55,3.26-14.91,2.17-4.36,5.29-7.71,9.36-10.05,4.07-2.34,8.84-3.52,14.32-3.52,8.37,0,14.97,2.59,19.8,7.78,4.82,5.19,7.24,12.24,7.24,21.17v.62c0,8.72-2.42,15.64-7.26,20.75-4.84,5.12-11.4,7.68-19.67,7.68s-14.35-2.39-19.18-7.16c-4.83-4.77-7.43-11.24-7.81-19.41l-.05-2.95ZM256.83,112.35c0,5.17.81,8.96,2.43,11.37,1.62,2.41,4.01,3.62,7.19,3.62,6.2,0,9.37-4.77,9.51-14.32v-1.76c0-10.03-3.21-15.04-9.61-15.04-5.82,0-8.98,4.32-9.46,12.97l-.05,3.15Z"/>
    <path class="st2" d="M334.88,99.58l-5.74-.41c-5.48,0-8.99,1.72-10.55,5.17v35.41h-17.42v-55.93h16.33l.57,7.18c2.93-5.48,7.01-8.22,12.25-8.22,1.86,0,3.48.21,4.86.62l-.31,16.18Z"/>
    <path class="st2" d="M363.62,118.91l-4.91,4.91v15.92h-17.42V60.3h17.42v42.18l1.76-2.33,13.13-16.33h20.88l-19.59,23,20.88,32.93h-19.95l-12.2-20.83Z"/>
    <path class="st2" d="M428.34,124.03c0-1.48-.78-2.67-2.33-3.57-1.55-.9-4.5-1.83-8.84-2.79-4.34-.96-7.93-2.23-10.75-3.8-2.83-1.57-4.98-3.47-6.46-5.71-1.48-2.24-2.22-4.81-2.22-7.7,0-5.13,2.12-9.36,6.36-12.69,4.24-3.33,9.79-4.99,16.64-4.99,7.37,0,13.3,1.67,17.78,5.01,4.48,3.34,6.72,7.74,6.72,13.18h-17.47c0-4.48-2.36-6.72-7.08-6.72-1.83,0-3.36.51-4.6,1.52-1.24,1.02-1.86,2.28-1.86,3.8s.76,2.81,2.27,3.77c1.52.97,3.94,1.76,7.26,2.38,3.33.62,6.25,1.36,8.76,2.22,8.41,2.89,12.61,8.08,12.61,15.56,0,5.1-2.27,9.25-6.8,12.46-4.53,3.21-10.4,4.81-17.6,4.81-4.79,0-9.06-.86-12.82-2.58-3.76-1.72-6.69-4.07-8.79-7.03-2.1-2.96-3.15-6.08-3.15-9.36h16.28c.07,2.58.93,4.47,2.58,5.66,1.65,1.19,3.77,1.78,6.36,1.78,2.38,0,4.16-.48,5.35-1.45,1.19-.96,1.78-2.22,1.78-3.77Z"/>
  </g>
  <g>
    <path class="st0" d="M143.29,39.69c0-4.12.8-7.78,2.4-10.99,1.6-3.21,3.9-5.68,6.9-7.41,3-1.73,6.52-2.59,10.56-2.59,6.17,0,11.04,1.91,14.59,5.74,3.56,3.82,5.33,9.03,5.33,15.6v.46c0,6.43-1.78,11.53-5.35,15.3-3.57,3.77-8.4,5.66-14.5,5.66s-10.58-1.76-14.14-5.28c-3.56-3.52-5.48-8.29-5.75-14.31l-.04-2.17ZM156.13,40.49c0,3.81.6,6.61,1.79,8.38,1.19,1.78,2.96,2.67,5.3,2.67,4.57,0,6.91-3.52,7.01-10.56v-1.3c0-7.39-2.36-11.09-7.09-11.09-4.29,0-6.62,3.19-6.97,9.56l-.04,2.32Z"/>
    <path class="st0" d="M200.52,19.46l.42,4.84c2.84-3.73,6.77-5.6,11.77-5.6,4.29,0,7.5,1.28,9.62,3.85,2.12,2.57,3.22,6.43,3.3,11.58v26.56h-12.88v-26.03c0-2.08-.42-3.61-1.26-4.59-.84-.98-2.36-1.47-4.57-1.47-2.52,0-4.38.99-5.6,2.97v29.11h-12.84V19.46h12.04Z"/>
    <path class="st0" d="M249.3,45.33l-3.62,3.62v11.74h-12.84V2.12h12.84v31.1l1.3-1.71,9.68-12.04h15.4l-14.44,16.96,15.4,24.27h-14.71l-8.99-15.36Z"/>
    <path class="st0" d="M295.37,61.45c-6.33,0-11.45-1.89-15.36-5.66-3.91-3.77-5.87-8.68-5.87-14.73v-1.07c0-4.22.78-7.94,2.34-11.17,1.56-3.23,3.84-5.72,6.84-7.49,3-1.77,6.55-2.65,10.67-2.65,5.79,0,10.36,1.8,13.72,5.39,3.35,3.6,5.03,8.61,5.03,15.03v4.99h-25.53c.46,2.31,1.46,4.13,3.01,5.45,1.55,1.32,3.56,1.98,6.02,1.98,4.06,0,7.24-1.42,9.53-4.27l5.87,6.94c-1.6,2.21-3.87,3.97-6.8,5.28-2.93,1.31-6.09,1.96-9.47,1.96ZM293.92,28.6c-3.76,0-6,2.49-6.71,7.47h12.96v-.99c.05-2.06-.47-3.65-1.56-4.78-1.09-1.13-2.65-1.7-4.69-1.7Z"/>
    <path class="st0" d="M334.39,42.7l6.86-23.25h13.76l-16.81,48.13-.72,1.75c-2.39,5.34-6.61,8-12.65,8-1.68,0-3.44-.25-5.3-.76v-9.15h1.68c1.8,0,3.18-.26,4.13-.78.95-.52,1.66-1.46,2.11-2.8l1.03-2.75-14.33-41.65h13.72l6.52,23.25Z"/>
    <path class="st0" d="M379.93,49.11c0-1.09-.57-1.97-1.71-2.63-1.14-.66-3.32-1.35-6.52-2.06-3.2-.71-5.84-1.64-7.93-2.8-2.08-1.16-3.67-2.56-4.76-4.21-1.09-1.65-1.64-3.54-1.64-5.68,0-3.79,1.56-6.9,4.69-9.36,3.12-2.45,7.21-3.68,12.27-3.68,5.44,0,9.81,1.23,13.11,3.7,3.3,2.46,4.95,5.7,4.95,9.72h-12.88c0-3.3-1.74-4.95-5.22-4.95-1.35,0-2.48.38-3.39,1.12-.91.75-1.37,1.68-1.37,2.8s.56,2.07,1.68,2.78c1.12.71,2.9,1.3,5.35,1.75,2.45.46,4.6,1,6.46,1.64,6.2,2.13,9.3,5.96,9.3,11.47,0,3.76-1.67,6.82-5.01,9.18-3.34,2.36-7.67,3.54-12.98,3.54-3.53,0-6.68-.64-9.45-1.91-2.77-1.27-4.93-3-6.48-5.18-1.55-2.18-2.32-4.48-2.32-6.9h12c.05,1.91.69,3.3,1.91,4.17,1.22.88,2.78,1.31,4.69,1.31,1.75,0,3.07-.36,3.94-1.07.88-.71,1.31-1.64,1.31-2.78Z"/>
  </g>
</svg>